<?xml version="1.0" standalone="no"?><!DOCTYPE svg PUBLIC "-//W3C//DTD SVG 1.1//EN" "http://www.w3.org/Graphics/SVG/1.1/DTD/svg11.dtd"><svg t="1574931905484" class="icon" viewBox="0 0 1024 1024" version="1.1" xmlns="http://www.w3.org/2000/svg" p-id="4063" xmlns:xlink="http://www.w3.org/1999/xlink" width="16" height="16"><defs><style type="text/css"></style></defs><path d="M512.5 64.5c-246.7 0-447.4 200.7-447.4 447.4s200.7 447.4 447.4 447.4 447.4-200.7 447.4-447.4S759.2 64.5 512.5 64.5z m0 812.2c-201.1 0-364.8-163.6-364.8-364.8s163.6-364.8 364.8-364.8 364.8 163.6 364.8 364.8-163.6 364.8-364.8 364.8z" p-id="4064"></path><path d="M512.5 615.1c22.8 0 41.3-18.5 41.3-41.3V284.7c0-22.8-18.5-41.3-41.3-41.3s-41.3 18.5-41.3 41.3v289.1c0 22.8 18.5 41.3 41.3 41.3z" p-id="4065"></path><path d="M512.5 718.4m-61.9 0a61.9 61.9 0 1 0 123.8 0 61.9 61.9 0 1 0-123.8 0Z" p-id="4066"></path></svg>