<?xml version="1.0" encoding="UTF-8"?>
<svg width="16px" height="16px" viewBox="0 0 16 16" version="1.1" xmlns="http://www.w3.org/2000/svg" xmlns:xlink="http://www.w3.org/1999/xlink">
    <!-- Generator: Sketch 51.3 (57544) - http://www.bohemiancoding.com/sketch -->
    <title>Load Icon</title>
    <desc>Created with Sketch.</desc>
    <defs></defs>
    <g id="UI-Kit" stroke="none" stroke-width="1" fill-rule="evenodd">
        <g transform="translate(-1244.000000, -1961.000000)" id="White">
            <g>
                <g id="Misc" transform="translate(911.000000, 1837.000000)">
                    <g id="Load-Icon" transform="translate(333.000000, 124.000000)">
                        <path d="M12.757,1.828 C13.148,1.438 13.781,1.438 14.172,1.828 C14.563,2.219 14.563,2.852 14.172,3.243 L12.757,4.657 C12.367,5.047 11.733,5.047 11.343,4.657 C10.952,4.267 10.952,3.633 11.343,3.243 L12.757,1.828 Z" id="Fill-4" ></path>
                        <path d="M3.757,10.828 L2.343,12.242 C1.953,12.633 1.953,13.267 2.343,13.657 C2.734,14.048 3.367,14.048 3.757,13.657 L5.171,12.242 C5.562,11.852 5.562,11.219 5.171,10.828 C4.781,10.439 4.148,10.439 3.757,10.828 Z M12.242,10.828 C11.852,10.439 11.219,10.439 10.828,10.828 C10.438,11.219 10.438,11.852 10.828,12.242 L12.242,13.657 C12.633,14.048 13.267,14.048 13.657,13.657 C14.048,13.267 14.048,12.633 13.657,12.242 L12.242,10.828 Z M3.757,2.343 C3.367,1.953 2.734,1.953 2.343,2.343 C1.953,2.734 1.953,3.367 2.343,3.758 L3.757,5.171 C4.148,5.562 4.781,5.562 5.171,5.171 C5.562,4.781 5.562,4.147 5.171,3.758 L3.757,2.343 Z M15,7 L13,7 C12.447,7 12,7.448 12,8 C12,8.552 12.447,9 13,9 L15,9 C15.553,9 16,8.552 16,8 C16,7.448 15.553,7 15,7 Z M4,8 C4,7.448 3.552,7 3,7 L1,7 C0.448,7 0,7.448 0,8 C0,8.552 0.448,9 1,9 L3,9 C3.552,9 4,8.552 4,8 Z M8,12 C7.448,12 7,12.447 7,13 L7,15 C7,15.552 7.448,16 8,16 C8.553,16 9,15.552 9,15 L9,13 C9,12.447 8.553,12 8,12 Z M8,0 C7.448,0 7,0.448 7,1 L7,3 C7,3.553 7.448,4 8,4 C8.553,4 9,3.553 9,3 L9,1 C9,0.448 8.553,0 8,0 L8,0 Z" id="Fill-1" opacity="0.5"></path>
                    </g>
                </g>
            </g>
        </g>
    </g>
</svg>